<?xml version="1.0" encoding="utf-8"?>
<!-- Generator: Adobe Illustrator 22.0.1, SVG Export Plug-In . SVG Version: 6.00 Build 0)  -->
<svg version="1.1" id="Layer_2" xmlns="http://www.w3.org/2000/svg" xmlns:xlink="http://www.w3.org/1999/xlink" x="0px" y="0px"
	 viewBox="0 0 110.5 118.1" style="enable-background:new 0 0 110.5 118.1;" xml:space="preserve">
<style type="text/css">
	.st0{fill:#FFE700;}
</style>
<g>
	
		<rect x="16.5" y="12.4" transform="matrix(0.9135 -0.4067 0.4067 0.9135 -19.1493 27.6066)" class="st0" width="77.7" height="92.9"/>
	<polygon points="15,47.4 12.7,42.4 29.1,26.8 31.5,32.1 20.4,42 35.2,40.3 37.5,45.5 	"/>
	<polygon points="47.5,67.6 56.2,86.9 51.2,89.2 35.6,80.3 35.6,80.3 35.6,80.3 41.5,93.5 36.5,95.8 27.7,76.3 33,74.1 48.4,82.9 
		48.4,82.9 48.5,82.9 42.7,69.7 	"/>
	<g>
		<path d="M68.4,58.3l5.3,11.9c1,2.3,1.2,4.5,0.4,6.4c-0.9,2.1-2.6,3.8-5.2,4.9c-2.8,1.3-5.4,1.4-7.6,0.4c-1.7-0.8-3.1-2.3-4-4.4
			l-5.3-11.9l4.9-2.2l4.6,10.4c0.9,2,1.7,3.2,2.4,3.6c0.8,0.5,1.9,0.4,3.2-0.1c1.4-0.6,2.2-1.5,2.3-2.6c0.1-0.8-0.3-2-1.1-3.9
			l-4.6-10.4L68.4,58.3z"/>
		<polygon points="86.8,50.1 88.6,53.9 79.5,58 81,61.3 89.6,57.5 91.3,61.3 82.7,65.1 84.7,69.6 93.7,65.5 95.5,69.4 81.5,75.7 
			72.9,56.3 		"/>
		<polygon points="45.5,63.2 41.6,64.9 37.6,55.9 34.3,57.4 38.1,65.9 34.3,67.6 30.5,59.1 26,61.1 30,70.1 25.8,71.9 19.6,58 
			39.3,49.2 		"/>
		<rect x="84.9" y="79.6" transform="matrix(0.9126 -0.409 0.409 0.9126 -25.3249 44.9846)" width="15.3" height="4.2"/>
		<rect x="39.8" y="99.7" transform="matrix(0.9126 -0.4089 0.4089 0.9126 -37.4684 28.3199)" width="15.3" height="4.2"/>
		<polygon points="63.8,96.9 60.7,90 57.5,92.3 58.2,94 59.7,93 61.9,97.8 60.3,98.5 61,100.2 66.2,97.9 65.4,96.2 		"/>
		<polygon points="71.9,93.3 68.8,86.4 65.6,88.7 66.4,90.4 67.9,89.4 70,94.2 68.4,94.9 69.1,96.6 74.3,94.3 73.5,92.6 		"/>
		<path d="M81.5,88.9l0.8-0.4l-0.8-1.7l-0.8,0.4l-2.2-4.9L76.9,83l-1.8,7l0.7,1.5l3.9-1.7l0.8,1.7l1.9-0.8L81.5,88.9z M79,88.1
			L77,89.1l0.9-3.8c0,0.2,0,0.4,0.1,0.5L79,88.1L79,88.1L79,88.1z"/>
	</g>
</g>
</svg>