<?xml version="1.0" encoding="utf-8"?>
<!-- Generator: Adobe Illustrator 22.0.1, SVG Export Plug-In . SVG Version: 6.00 Build 0)  -->
<svg version="1.1" id="Layer_1" xmlns="http://www.w3.org/2000/svg" xmlns:xlink="http://www.w3.org/1999/xlink" x="0px" y="0px"
	 viewBox="0 0 30 18" style="enable-background:new 0 0 30 18;" xml:space="preserve">
<style type="text/css">
	.st0{fill:#FFFFFF;}
</style>
<path id="Combined-Shape" class="st0" d="M14.5,4.8c0,0.4-0.3,0.8-0.8,0.8H4c-0.4,0-0.8-0.4-0.8-0.8S3.5,4,4,4h9.8
	C14.2,4,14.5,4.4,14.5,4.8z M13.3,8.6L13.3,8.6c0,0.4-0.3,0.8-0.8,0.8H7.3C6.9,9.4,6.5,9,6.5,8.6s0.4-0.8,0.8-0.8h5.2
	C12.9,7.8,13.3,8.2,13.3,8.6z M21,0.3L21,0.3c4.7,0,8.5,3.8,8.5,8.5s-3.8,8.5-8.5,8.5c-3,0-5.8-1.6-7.3-4.2h-3.5
	c-0.4,0-0.8-0.4-0.8-0.8c0-0.4,0.4-0.8,0.8-0.8h4c0.3,0,0.6,0.2,0.7,0.4c1.2,2.3,3.6,3.7,6.1,3.7c3.8,0,6.9-3.1,6.9-6.9
	S24.8,1.9,21,1.9H0.8C0.4,1.9,0,1.5,0,1.1s0.4-0.8,0.8-0.8H21z M21,3.2L21,3.2c0.5,0,0.8,0.4,0.8,0.8v4.4l1.9,1.9
	c0.3,0.3,0.3,0.9,0,1.2c-0.2,0.2-0.4,0.3-0.6,0.3s-0.4-0.1-0.6-0.3l-2.2-2.2l-0.1-0.1c0,0,0-0.1-0.1-0.1c0-0.1,0-0.1,0-0.2v0V4.1
	C20.1,3.6,20.5,3.2,21,3.2z"/>
</svg>
