<?xml version="1.0" encoding="UTF-8"?>
<svg width="13px" height="16px" viewBox="0 0 13 16" version="1.1" xmlns="http://www.w3.org/2000/svg" xmlns:xlink="http://www.w3.org/1999/xlink">
    <!-- Generator: sketchtool 52.6 (67491) - http://www.bohemiancoding.com/sketch -->
    <title>8CACDE45-1553-44DE-AA23-C920E2C76019</title>
    <desc>Created with sketchtool.</desc>
    <g id="Desktop" stroke="none" stroke-width="1" fill="none" fill-rule="evenodd">
        <g id="Standard-Page" transform="translate(-969.236165, -979.000000)" fill="#FFFFFF" fill-rule="nonzero">
            <g id="Side-information" transform="translate(961.000000, 759.000000)">
                <g id="np_wheelchair_250664_000000" transform="translate(9.000000, 220.000000)">
                    <path d="M7,1.5 C7,2.32821252 6.32836861,3 5.50034852,3 C4.67163139,3 4,2.32821252 4,1.5 C4,0.671787476 4.67163139,0 5.50034852,0 C6.32836861,0 7,0.671787476 7,1.5" id="Shape"></path>
                    <path d="M11.9854965,11.9712553 L11.215971,7.82689419 C11.158994,7.48581399 10.8959266,7.2134932 10.5505459,7.12404103 C10.535071,7.1200361 10.5210031,7.11402888 10.5048235,7.11069138 C10.475983,7.10468416 10.4450338,7.1033493 10.4154909,7.1000118 C10.3824313,7.09600704 10.3507762,7.09066725 10.3170124,7.09066725 C10.3134954,7.09066725 10.3106817,7.08933222 10.3071647,7.08933222 L6.92232575,7.08866479 L6.67683173,5.7670623 L9.31040465,5.7670623 C9.62342617,5.7670623 9.87734762,5.52609676 9.87734762,5.22975119 C9.87734762,4.93272212 9.62340817,4.69244008 9.31040465,4.69244008 L6.47713038,4.69244008 L6.33363352,3.9221774 C6.22038358,3.31544047 5.61123321,2.91028278 4.97182872,3.01707859 C4.33242422,3.12387441 3.90545228,3.70257103 4.01799813,4.30930796 L4.68905952,7.91900652 C4.78894441,8.45698404 5.27991623,8.83478491 5.83562263,8.83944975 C5.84336002,8.83944975 5.85039422,8.84145222 5.8581318,8.84145222 L9.52928742,8.84145222 L10.1672873,12.2756639 C10.2559177,12.7522466 10.7342303,13.0706178 11.2371752,12.986531 C11.7394178,12.9024289 12.0749305,12.4478871 11.9855961,11.9713044 L11.9854965,11.9712553 Z" id="Shape"></path>
                    <path d="M9.54877147,13.4183522 C9.41686107,13.4183522 9.29935887,13.4729896 9.21646738,13.5583602 L9.21502583,13.5576773 L9.12852675,13.6471462 C9.12780597,13.6478292 9.03265717,13.746859 8.9836401,13.7953508 C8.08836773,14.6654575 6.89105441,15.1449027 5.61169845,15.1449027 C3.01534214,15.1449027 0.901904402,13.1438634 0.901904402,10.6824715 C0.901904402,9.12052446 1.78418577,7.65145218 3.20485585,6.84823905 L3.28126291,6.80589465 L3.27910038,6.80179693 C3.41966161,6.72940285 3.51626009,6.58940178 3.51626009,6.42753528 C3.51626009,6.19122207 3.31370001,6 3.06502554,6 C2.96699326,6 2.87689582,6.03073331 2.8026404,6.08127244 C2.76155264,6.10381101 2.71109623,6.13181158 2.67865746,6.15093553 C1.00130425,7.1289533 1.54664203e-07,8.82335885 1.54664203e-07,10.6831277 C-0.000720624851,13.6144885 2.51793064,16 5.61233712,16 C7.14193606,16 8.57277382,15.4256169 9.64102589,14.3813699 C9.69580772,14.3280981 9.80104965,14.2174578 9.80104965,14.2174578 L9.86664501,14.1491602 C9.86736579,14.1477944 9.86808657,14.1471114 9.86952832,14.1464285 L9.88899084,14.1266227 L9.88826988,14.1252568 C9.95674762,14.05013 9.99999808,13.9531482 9.99999808,13.8459156 C10.0007189,13.6096024 9.79815767,13.4183803 9.54876353,13.4183803 L9.54877147,13.4183522 Z" id="Shape"></path>
                </g>
            </g>
        </g>
    </g>
</svg>