<?xml version="1.0" encoding="utf-8"?>
<!-- Generator: Adobe Illustrator 23.0.3, SVG Export Plug-In . SVG Version: 6.00 Build 0)  -->
<svg version="1.1" id="Layer_1" xmlns="http://www.w3.org/2000/svg" xmlns:xlink="http://www.w3.org/1999/xlink" x="0px" y="0px"
	 viewBox="0 0 448 512" style="enable-background:new 0 0 448 512;" xml:space="preserve">
<style type="text/css">
	.st0{fill:#FFFFFF;}
</style>
<path class="st0" d="M192,107v40c0,6.6-5.4,12-12,12h-40c-6.6,0-12-5.4-12-12v-40c0-6.6,5.4-12,12-12h40C186.6,95,192,100.4,192,107
	z M308,95h-40c-6.6,0-12,5.4-12,12v40c0,6.6,5.4,12,12,12h40c6.6,0,12-5.4,12-12v-40C320,100.4,314.6,95,308,95z M180,191h-40
	c-6.6,0-12,5.4-12,12v40c0,6.6,5.4,12,12,12h40c6.6,0,12-5.4,12-12v-40C192,196.4,186.6,191,180,191z M308,191h-40
	c-6.6,0-12,5.4-12,12v40c0,6.6,5.4,12,12,12h40c6.6,0,12-5.4,12-12v-40C320,196.4,314.6,191,308,191z M180,287h-40
	c-6.6,0-12,5.4-12,12v40c0,6.6,5.4,12,12,12h40c6.6,0,12-5.4,12-12v-40C192,292.4,186.6,287,180,287z M308,287h-40
	c-6.6,0-12,5.4-12,12v40c0,6.6,5.4,12,12,12h40c6.6,0,12-5.4,12-12v-40C320,292.4,314.6,287,308,287z M448,492v20H0v-20
	c0-6.6,5.4-12,12-12h20V24C32,10.7,42.7,0,56,0h336c13.3,0,24,10.7,24,24v456h20C442.6,480,448,485.4,448,492z M384,480V32H64v448
	h128v-85c0-6.6,5.4-12,12-12h40c6.6,0,12,5.4,12,12v85H384z"/>
</svg>
