<?xml version="1.0" encoding="UTF-8"?>
<svg width="21px" height="22px" viewBox="0 0 21 22" version="1.1" xmlns="http://www.w3.org/2000/svg" xmlns:xlink="http://www.w3.org/1999/xlink">
    <!-- Generator: Sketch 52.6 (67491) - http://www.bohemiancoding.com/sketch -->
    <title>np_date_1076224_000000</title>
    <desc>Created with Sketch.</desc>
    <g id="Desktop" stroke="none" stroke-width="1" fill="none" fill-rule="evenodd">
        <g id="Standard-Page" transform="translate(-132.236165, -372.000000)" fill="#FFFFFF" fill-rule="nonzero">
            <g id="Slider-" transform="translate(133.000000, 242.000000)">
                <g id="Content">
                    <g id="Date" transform="translate(0.000000, 130.000000)">
                        <g id="np_date_1076224_000000">
                            <path d="M15.7589173,2.01061491 L14.9471278,2.01061491 L14.9471278,0.600255229 C14.9471278,0.269634649 14.6769203,0 14.3456241,0 C14.0143278,0 13.7441203,0.269646654 13.7441203,0.600255229 L13.7441203,2.01061491 L6.22532331,2.01061491 L6.22532331,0.600255229 C6.22532331,0.269634649 5.95511579,0 5.62381955,0 C5.29252331,0 5.02231579,0.269646654 5.02231579,0.600255229 L5.02231579,2.01061491 L4.21052632,2.01061491 C1.89497744,2.01061491 0,3.90165899 0,6.21240151 L0,17.2267848 C0,19.5375274 1.89497744,21.4285714 4.21052632,21.4285714 L15.7894737,21.4285714 C18.1050226,21.4285714 20,19.5375274 20,17.2267848 L20,6.21240151 C19.9694556,3.90165899 18.1050226,2.01061491 15.758797,2.01061491 L15.7589173,2.01061491 Z M15.7589173,20.228061 L4.21064662,20.228061 C2.55651128,20.228061 1.20312782,18.8774867 1.20312782,17.2267848 L1.20312782,8.91355004 L18.7971128,8.91355004 L18.7971128,17.2267848 C18.7665684,18.8774867 17.4131729,20.228061 15.7589173,20.228061 Z M18.7665564,7.71303958 L1.20312782,7.71303958 L1.20312782,6.21240151 C1.20312782,4.56169963 2.55651128,3.21112537 4.21064662,3.21112537 L5.02243609,3.21112537 L5.02243609,4.62148506 C5.02243609,4.95210564 5.29264361,5.22174028 5.62393985,5.22174028 C5.95523609,5.22174028 6.22544361,4.95209363 6.22544361,4.62148506 L6.22544361,3.21112537 L13.7442406,3.21112537 L13.7442406,4.62148506 C13.7442406,4.95210564 14.0144481,5.22174028 14.3457444,5.22174028 C14.6770406,5.22174028 14.9472481,4.95209363 14.9472481,4.62148506 L14.9472481,3.21112537 L15.7590376,3.21112537 C17.4131729,3.21112537 18.7665564,4.56169963 18.7665564,6.21240151 L18.7665564,7.71303958 Z" id="Shape"></path>
                            <path d="M15.1376884,15.7142857 L4.89202063,15.7142857 C4.5580671,15.7142857 4.28571429,16.0351571 4.28571429,16.4285714 C4.28571429,16.8219857 4.55807922,17.1428571 4.89202063,17.1428571 L15.1079794,17.1428571 C15.4419329,17.1428571 15.7142857,16.8219857 15.7142857,16.4285714 C15.7142857,16.0351571 15.4715267,15.7142857 15.1375974,15.7142857 L15.1376884,15.7142857 Z" id="Shape"></path>
                            <path d="M6.25336927,12.8571429 L12.3180593,12.8571429 C12.6149865,12.8571429 12.8571429,12.5362714 12.8571429,12.1428571 C12.8571429,11.7494286 12.6149757,11.4285714 12.3180593,11.4285714 L6.25336927,11.4285714 C5.95644205,11.4285714 5.71428571,11.7494429 5.71428571,12.1428571 C5.71428571,12.5362857 5.95645283,12.8571429 6.25336927,12.8571429 Z" id="Shape"></path>
                        </g>
                    </g>
                </g>
            </g>
        </g>
    </g>
</svg>