<?xml version="1.0" encoding="utf-8"?>
<!-- Generator: Adobe Illustrator 22.0.1, SVG Export Plug-In . SVG Version: 6.00 Build 0)  -->
<svg version="1.1" id="Layer_1" xmlns="http://www.w3.org/2000/svg" xmlns:xlink="http://www.w3.org/1999/xlink" x="0px" y="0px"
	 viewBox="0 0 21 21" style="enable-background:new 0 0 21 21;" xml:space="preserve">
<title>2C9E2C7A-EFCB-404D-9203-6F1C01962964</title>
<desc>Created with sketchtool.</desc>
<g id="Additional-templates">
	<g id="Events-directory-page-persistent-filter" transform="translate(-598.000000, -19.000000)">
		<g id="filter">
			<g id="np_calendar_2080420_000000" transform="translate(598.000000, 19.000000)">
				<path id="Combined-Shape" d="M5.9,5.7L5.9,5.7c-0.8,0-1.4-0.6-1.4-1.4V1.5c0-0.8,0.6-1.4,1.4-1.4c0.8,0,1.4,0.6,1.4,1.4v2.8
					C7.3,5.1,6.7,5.7,5.9,5.7z M14.6,5.7L14.6,5.7c-0.8,0-1.4-0.6-1.4-1.4V1.5c0-0.8,0.6-1.4,1.4-1.4c0.8,0,1.4,0.6,1.4,1.4l0,2.8
					C16,5.1,15.4,5.7,14.6,5.7z M19,2.9L19,2.9c0.9,0,1.6,0.7,1.6,1.5v14.9c0,0.9-0.7,1.5-1.5,1.5H1.6c-0.8,0-1.5-0.7-1.5-1.5V4.4
					c0-0.9,0.7-1.5,1.5-1.5h1.8v1.4c0,1.4,1.2,2.6,2.6,2.6c1.4,0,2.6-1.2,2.6-2.6V2.9h3.6v1.4c0,1.4,1.2,2.6,2.6,2.6
					c1.4,0,2.6-1.2,2.6-2.6V2.9H19z M7.2,16.2v-1.5c0-0.3-0.3-0.6-0.6-0.6H4.7c-0.3,0-0.6,0.3-0.6,0.6v1.5c0,0.3,0.3,0.6,0.6,0.6
					h1.9C6.9,16.8,7.2,16.5,7.2,16.2z M7.2,12v-1.5c0-0.3-0.3-0.6-0.6-0.6H4.7c-0.3,0-0.6,0.3-0.6,0.6V12c0,0.3,0.3,0.6,0.6,0.6h1.9
					C6.9,12.6,7.2,12.3,7.2,12z M11.8,16.2v-1.5c0-0.3-0.3-0.6-0.6-0.6H9.3c-0.3,0-0.6,0.3-0.6,0.6v1.5c0,0.3,0.3,0.6,0.6,0.6h1.9
					C11.5,16.8,11.8,16.5,11.8,16.2z M11.8,12v-1.5c0-0.3-0.3-0.6-0.6-0.6H9.3c-0.3,0-0.6,0.3-0.6,0.6V12c0,0.3,0.3,0.6,0.6,0.6h1.9
					C11.5,12.6,11.8,12.3,11.8,12z M16.4,16.2v-1.5c0-0.3-0.3-0.6-0.6-0.6H14c-0.3,0-0.6,0.3-0.6,0.6v1.5c0,0.3,0.3,0.6,0.6,0.6h1.9
					C16.1,16.8,16.4,16.5,16.4,16.2z M16.4,12v-1.5c0-0.3-0.3-0.6-0.6-0.6H14c-0.3,0-0.6,0.3-0.6,0.6V12c0,0.3,0.3,0.6,0.6,0.6h1.9
					C16.1,12.6,16.4,12.3,16.4,12z"/>
			</g>
		</g>
	</g>
</g>
</svg>
