<?xml version="1.0" encoding="UTF-8"?>
<svg width="28px" height="17px" viewBox="0 0 28 17" version="1.1" xmlns="http://www.w3.org/2000/svg" xmlns:xlink="http://www.w3.org/1999/xlink">
    <!-- Generator: sketchtool 53 (72520) - https://sketchapp.com -->
    <title>FC906076-78F7-4EA6-8ADB-0EF64E111F93</title>
    <desc>Created with sketchtool.</desc>
    <g id="Additional-templates" stroke="none" stroke-width="1" fill="none" fill-rule="evenodd">
        <g id="Space-listing-page" transform="translate(-746.000000, -430.000000)" fill="#FFE51E" fill-rule="nonzero">
            <g id="Group-4" transform="translate(133.000000, 408.000000)">
                <g id="np_people_1350210_000000" transform="translate(613.000000, 22.000000)">
                    <path d="M19.2226533,4.40768106 C19.2226533,2.58749808 20.6817081,1.11336417 22.4821396,1.11336417 C24.2824591,1.11336417 25.7405059,2.58851721 25.7405059,4.40768106 C25.7405059,6.22684491 24.2814511,7.70199795 22.4821396,7.70199795 C20.6818201,7.70199795 19.2226533,6.22684491 19.2226533,4.40768106 Z M23.8099022,8.17192714 L21.154265,8.17192714 C20.4520797,8.17192714 19.7586303,8.36212957 19.1417611,8.6927559 C19.9544067,9.55085793 20.3973956,10.612445 20.3973956,11.7215345 L20.3973956,16.9997452 L25.1431248,16.9997452 C25.1442185,15.7358055 25.1442185,11.7914577 25.1442185,11.7914577 C25.1442185,11.7914577 25.8146798,11.8423261 25.8146798,12.5544698 L25.8146798,16.9986978 L28,16.9986978 L28,12.066706 C28,9.91587402 25.93718,8.17195545 23.8097919,8.17195545 L23.8099022,8.17192714 Z M5.5180267,7.70194133 C7.3183462,7.70194133 8.77639303,6.2267883 8.77639303,4.40762444 C8.77639303,2.58744147 7.3173382,1.11330756 5.5180267,1.11330756 C3.71871521,1.11330756 2.25966038,2.58846059 2.25966038,4.40762444 C2.2585667,6.22670337 3.71762321,7.70194133 5.5180267,7.70194133 Z M6.84584528,8.17192714 L4.19020813,8.17192714 C2.061756,8.17192714 0,9.9158174 0,12.0666777 L0,16.9986695 L2.18641224,16.9986695 L2.18641224,12.5544415 C2.18641224,11.8268156 2.85687354,11.7914294 2.85687354,11.7914294 L2.85687354,16.9988676 L7.60372275,16.9988676 L7.60262907,11.7217893 C7.60262907,10.6137472 8.04558993,9.55216014 8.85826351,8.69301068 C8.24248631,8.36125765 7.54794496,8.17218192 6.8457596,8.17218192 L6.84584528,8.17192714 Z M13.9990192,7.05063645 C15.9251149,7.05063645 17.4858659,5.47263687 17.4858659,3.52531823 C17.4858659,1.57797128 15.9250869,0 13.9990192,0 C12.0729514,0 10.5121724,1.57799959 10.5121724,3.52531823 C10.5132661,5.47266517 12.0740434,7.05063645 13.9990192,7.05063645 L13.9990192,7.05063645 Z M15.4208899,7.55266804 L12.5794444,7.55266804 C10.302256,7.55266804 8.09607571,9.41930606 8.09607571,11.7206003 L8.09607571,16.998811 L10.4345282,16.998811 L10.4345282,12.242618 C10.4345282,11.4641209 11.1520296,11.4265265 11.1520296,11.4265265 L11.1520296,17 L16.8494807,17 C16.8505747,15.6486988 16.8505747,11.4265265 16.8505747,11.4265265 C16.8505747,11.4265265 17.568076,11.4807128 17.568076,12.242618 L17.568076,16.998811 L19.9065286,16.998811 L19.9054349,11.7217326 C19.9054349,9.4194193 17.6982466,7.55266804 15.4209462,7.55266804 L15.4208899,7.55266804 Z" id="Shape"></path>
                </g>
            </g>
        </g>
    </g>
</svg>