<?xml version="1.0" encoding="utf-8"?>
<!-- Generator: Adobe Illustrator 23.0.3, SVG Export Plug-In . SVG Version: 6.00 Build 0)  -->
<svg version="1.1" id="Layer_1" xmlns="http://www.w3.org/2000/svg" xmlns:xlink="http://www.w3.org/1999/xlink" x="0px" y="0px"
	 viewBox="0 0 29 18" style="enable-background:new 0 0 29 18;" xml:space="preserve">
<style type="text/css">
	.st0{fill:#FFFFFF;}
</style>
<g id="Shape">
	<path class="st0" d="M29,18H0v-5.4c0-2.4,2.1-4.1,4.2-4.4C3.1,7.6,2.3,6.3,2.3,4.9C2.3,2.8,4,1.1,6,1.1c2.1,0,3.8,1.7,3.8,3.8
		c0,1.4-0.8,2.7-2,3.3c0.7,0.1,1.5,0.3,2.1,0.6c0.8-0.6,1.7-1.1,2.8-1.2c-1.3-0.7-2.1-2.1-2.1-3.6c0-2.2,1.8-4,4-4s4,1.8,4,4.1
		c0,1.5-0.9,2.8-2.1,3.5c1,0.1,2,0.5,2.8,1.1c0.6-0.2,1.4-0.5,2-0.5c-1.2-0.7-2-1.9-2-3.3c0-2.1,1.7-3.8,3.8-3.8s3.8,1.7,3.8,3.8
		c0,1.4-0.8,2.7-2,3.3c2.1,0.2,4.2,2,4.2,4.4L29,18L29,18z M26.8,17H28v-4.4c0-2-2-3.4-3.7-3.4h-2.7c-0.4,0-1.1,0.2-1.7,0.4
		c0.6,0.8,0.9,1.7,0.9,2.7V17h4.3v-5.3l0.6,0.1c0.4,0.1,1.1,0.4,1.1,1.3V17z M18.5,17h1.3v-4.8c0-1.1-0.4-1.7-1.1-2.5
		C18,9,16.9,8.6,15.9,8.6h-2.8c-2.1,0-4,1.8-4,3.7l0,0V17h1.3v-4.3c0-1,0.7-1.3,1.2-1.3h0.5V17h4.7v-5.7l0.6,0.1
		c0.4,0.1,1.1,0.4,1.1,1.3V17z M3.9,17h4.2v-4.7c0-1,0.3-1.9,1-2.7C8.4,9.4,7.7,9.2,7.3,9.2H4.7C3,9.2,1,10.6,1,12.6V17h1.2v-3.9
		c0-0.9,0.7-1.2,1.1-1.3l0.6-0.1V17z M23,2.1c-1.5,0-2.8,1.3-2.8,2.8s1.3,2.8,2.8,2.8s2.8-1.3,2.8-2.8S24.5,2.1,23,2.1z M6,2.1
		c-1.5,0-2.7,1.3-2.7,2.8S4.5,7.7,6,7.7s2.8-1.3,2.8-2.8S7.5,2.1,6,2.1z M14.5,1c-1.6,0-3,1.4-3,3c0,1.7,1.3,3.1,3,3.1
		c1.6,0,3-1.4,3-3C17.5,2.4,16.2,1,14.5,1z"/>
</g>
</svg>
