<?xml version="1.0" encoding="utf-8"?>
<!-- Generator: Adobe Illustrator 22.0.1, SVG Export Plug-In . SVG Version: 6.00 Build 0)  -->
<svg version="1.1" id="Layer_1" xmlns="http://www.w3.org/2000/svg" xmlns:xlink="http://www.w3.org/1999/xlink" x="0px" y="0px"
	 viewBox="0 0 28 17" style="enable-background:new 0 0 28 17;" xml:space="preserve">
<title>FC906076-78F7-4EA6-8ADB-0EF64E111F93</title>
<desc>Created with sketchtool.</desc>
<g id="Additional-templates">
	<g id="Space-listing-page" transform="translate(-746.000000, -430.000000)">
		<g id="Group-4" transform="translate(133.000000, 408.000000)">
			<g id="np_people_1350210_000000" transform="translate(613.000000, 22.000000)">
				<path id="Shape" d="M19.2,4.4c0-1.8,1.5-3.3,3.3-3.3c1.8,0,3.3,1.5,3.3,3.3s-1.5,3.3-3.3,3.3C20.7,7.7,19.2,6.2,19.2,4.4z
					 M23.8,8.2h-2.7c-0.7,0-1.4,0.2-2,0.5c0.8,0.9,1.3,1.9,1.3,3V17h4.7c0-1.3,0-5.2,0-5.2s0.7,0.1,0.7,0.8V17H28v-4.9
					C28,9.9,25.9,8.2,23.8,8.2L23.8,8.2z M5.5,7.7c1.8,0,3.3-1.5,3.3-3.3c0-1.8-1.5-3.3-3.3-3.3S2.3,2.6,2.3,4.4
					C2.3,6.2,3.7,7.7,5.5,7.7z M6.8,8.2H4.2C2.1,8.2,0,9.9,0,12.1V17h2.2v-4.4c0-0.7,0.7-0.8,0.7-0.8V17h4.7l0-5.3
					c0-1.1,0.4-2.2,1.3-3C8.2,8.4,7.5,8.2,6.8,8.2L6.8,8.2z M14,7.1c1.9,0,3.5-1.6,3.5-3.5C17.5,1.6,15.9,0,14,0s-3.5,1.6-3.5,3.5
					C10.5,5.5,12.1,7.1,14,7.1L14,7.1z M15.4,7.6h-2.8c-2.3,0-4.5,1.9-4.5,4.2V17h2.3v-4.8c0-0.8,0.7-0.8,0.7-0.8V17h5.7
					c0-1.4,0-5.6,0-5.6s0.7,0.1,0.7,0.8V17h2.3l0-5.3C19.9,9.4,17.7,7.6,15.4,7.6L15.4,7.6z"/>
			</g>
		</g>
	</g>
</g>
</svg>
