<?xml version="1.0" encoding="UTF-8"?>
<svg width="21px" height="20px" viewBox="0 0 21 20" version="1.1" xmlns="http://www.w3.org/2000/svg" xmlns:xlink="http://www.w3.org/1999/xlink">
    <!-- Generator: Sketch 52.6 (67491) - http://www.bohemiancoding.com/sketch -->
    <title>np_time_1856586_000000</title>
    <desc>Created with Sketch.</desc>
    <g id="Desktop" stroke="none" stroke-width="1" fill="none" fill-rule="evenodd">
        <g id="Standard-Page" transform="translate(-132.236165, -411.000000)" fill="#FFFFFF" fill-rule="nonzero">
            <g id="Slider-" transform="translate(133.000000, 242.000000)">
                <g id="Content">
                    <g id="Time" transform="translate(0.000000, 169.000000)">
                        <g id="np_time_1856586_000000">
                            <path d="M10,0.131578947 C7.38281579,0.131578947 4.87263158,1.17084211 3.02210526,3.02210526 C1.17073684,4.87242105 0.131578947,7.38263158 0.131578947,10 C0.131578947,12.6173684 1.17084211,15.1273684 3.02210526,16.9778947 C4.87242105,18.8292632 7.38263158,19.8684211 10,19.8684211 C12.6173684,19.8684211 15.1273684,18.8291579 16.9778947,16.9778947 C18.8292632,15.1275789 19.8684211,12.6173684 19.8684211,10 C19.8684211,7.38263158 18.8291579,4.87263158 16.9778947,3.02210526 C15.1275789,1.17073684 12.6173684,0.131578947 10,0.131578947 Z M10,18.7715789 C7.67373684,18.7715789 5.44210526,17.8474474 3.79736842,16.2027105 C2.15263158,14.5579737 1.2285,12.3263947 1.2285,10.0000789 C1.2285,7.67376316 2.15263158,5.44218421 3.79736842,3.79744737 C5.44210526,2.15271053 7.67368421,1.22857895 10,1.22857895 C12.3263158,1.22857895 14.5578947,2.15271053 16.2026316,3.79744737 C17.8473684,5.44218421 18.7715,7.67376316 18.7715,10.0000789 C18.7694442,12.3253158 17.8442895,14.5550789 16.1995526,16.1998158 C14.5548158,17.8445526 12.3250789,18.7697105 9.99981579,18.7717632 L10,18.7715789 Z M15.4821053,10.5478947 C15.4821053,10.6938658 15.4245395,10.8336579 15.3217421,10.9364737 C15.2189447,11.0392895 15.0791421,11.0968368 14.9341895,11.0968368 L9.45208421,11.0968368 C9.30611316,11.0968368 9.16632105,11.0392711 9.06350526,10.9364737 C8.96068947,10.8336763 8.90314211,10.6938737 8.90314211,10.5478947 L8.90314211,3.96894737 C8.90314211,3.66673684 9.14882368,3.42105263 9.45206316,3.42105263 C9.75427368,3.42105263 9.99995789,3.66673421 9.99995789,3.96894737 L9.99995789,10 L14.9341684,10 C15.0791105,10 15.2189053,10.0575658 15.3217211,10.1603632 C15.4245368,10.2631605 15.4820842,10.4029632 15.4820842,10.5479158 L15.4821053,10.5478947 Z" id="Shape"></path>
                        </g>
                    </g>
                </g>
            </g>
        </g>
    </g>
</svg>