<?xml version="1.0" encoding="utf-8"?>
<!-- Generator: Adobe Illustrator 22.0.1, SVG Export Plug-In . SVG Version: 6.00 Build 0)  -->
<svg version="1.1" id="Layer_1" xmlns="http://www.w3.org/2000/svg" xmlns:xlink="http://www.w3.org/1999/xlink" x="0px" y="0px"
	 viewBox="0 0 14 19" style="enable-background:new 0 0 14 19;" xml:space="preserve">
<title>61668621-1103-42D4-8320-6963FE8F92AF</title>
<desc>Created with sketchtool.</desc>
<g id="Additional-templates">
	<g id="Events-directory-page-persistent-filter" transform="translate(-848.000000, -20.000000)">
		<g id="filter">
			<g id="np_arrows_11964_000000" transform="translate(848.000000, 20.000000)">
				<path id="Combined-Shape" d="M13.5,6.3c0.1,0.1,0.1,0.3,0.1,0.4c-0.1,0.1-0.2,0.2-0.4,0.2H0.6c-0.2,0-0.3-0.1-0.4-0.2
					c-0.1-0.1,0-0.3,0.1-0.4l6-6c0.3-0.3,0.9-0.3,1.2,0L13.5,6.3z M0.3,12.7c-0.1-0.1-0.1-0.3-0.1-0.4c0.1-0.1,0.2-0.2,0.4-0.2h12.7
					c0.2,0,0.3,0.1,0.4,0.2c0.1,0.1,0,0.3-0.1,0.4l-6,6c-0.3,0.3-0.9,0.3-1.2,0L0.3,12.7z"/>
			</g>
		</g>
	</g>
</g>
</svg>
