<svg width="24" height="17" viewBox="0 0 24 17" fill="none" xmlns="http://www.w3.org/2000/svg">
<path fill-rule="evenodd" clip-rule="evenodd" d="M1.92603 0.283691C1.37298 0.283691 0.903809 0.757472 0.903809 1.31595V15.2514C0.903809 15.8099 1.37298 16.2837 1.92603 16.2837H22.8816C23.4346 16.2837 23.9038 15.8099 23.9038 15.2514V1.31595C23.9038 0.757472 23.4346 0.283691 22.8816 0.283691H1.92603ZM21.1964 1.83208L12.4038 10.0659L3.61111 1.83208H21.1964ZM8.10741 8.14653L2.43714 2.84821V13.6707L8.10741 8.14653ZM22.3705 2.84821V13.6709L16.7002 8.14679L22.3705 2.84821ZM11.8848 11.6869L9.24131 9.21105L3.56325 14.7352H21.2446L15.5664 9.21105L12.923 11.6869C12.6295 11.959 12.1783 11.959 11.8848 11.6869Z" fill="white"/>
</svg>
