<?xml version="1.0" encoding="UTF-8"?>
<svg width="25px" height="22px" viewBox="0 0 25 22" version="1.1" xmlns="http://www.w3.org/2000/svg" xmlns:xlink="http://www.w3.org/1999/xlink">
    <!-- Generator: sketchtool 53 (72520) - https://sketchapp.com -->
    <title>EE1340A5-4F45-4FA9-86DC-9F8E6331B37A</title>
    <desc>Created with sketchtool.</desc>
    <g id="Additional-templates" stroke="none" stroke-width="1" fill="none" fill-rule="evenodd">
        <g id="Space-listing-page" transform="translate(-997.000000, -425.000000)" fill="#FFE51E">
            <g id="Group-4" transform="translate(133.000000, 408.000000)">
                <path d="M864,36.5890411 L888.712329,36.5890411 L888.712329,39 L864,39 L864,36.5890411 Z M888.712329,31.7671233 L888.712329,35.3835616 L877.863014,35.3835616 L877.863014,31.7671233 L888.712329,31.7671233 Z M884.191781,34.1780822 L884.191781,32.9726027 L882.383562,32.9726027 L882.383562,34.1780822 L884.191781,34.1780822 Z M864,35.3835616 L864,22.1232877 L876.657534,22.1232877 L876.657534,35.3835616 L864,35.3835616 Z M866.410959,24.2328767 L866.410959,25.4383562 L868.219178,25.4383562 L868.219178,24.2328767 L866.410959,24.2328767 Z M888.712329,26.9452055 L888.712329,30.5616438 L877.863014,30.5616438 L877.863014,26.9452055 L888.712329,26.9452055 Z M884.191781,29.3561644 L884.191781,28.1506849 L882.383562,28.1506849 L882.383562,29.3561644 L884.191781,29.3561644 Z M888.712329,22.1232877 L888.712329,25.739726 L877.863014,25.739726 L877.863014,22.1232877 L888.712329,22.1232877 Z M884.191781,24.5342466 L884.191781,23.3287671 L882.383562,23.3287671 L882.383562,24.5342466 L884.191781,24.5342466 Z M872.136986,20.0136986 L870.931507,20.0136986 L870.931507,19.5616438 C870.931507,18.8140959 870.32289,18.2054795 869.575342,18.2054795 C868.827795,18.2054795 868.219178,18.8140959 868.219178,19.5616438 L868.219178,20.9178082 L867.013699,20.9178082 L867.013699,19.5616438 C867.013699,18.1489726 868.162671,17 869.575342,17 C870.988014,17 872.136986,18.1489726 872.136986,19.5616438 L872.136986,20.0136986 Z" id="Combined-Shape"></path>
            </g>
        </g>
    </g>
</svg>