<?xml version="1.0" encoding="utf-8"?>
<!-- Generator: Adobe Illustrator 22.0.1, SVG Export Plug-In . SVG Version: 6.00 Build 0)  -->
<svg version="1.1" id="Layer_1" xmlns="http://www.w3.org/2000/svg" xmlns:xlink="http://www.w3.org/1999/xlink" x="0px" y="0px"
	 viewBox="0 0 25 22" style="enable-background:new 0 0 25 22;" xml:space="preserve">
<title>EE1340A5-4F45-4FA9-86DC-9F8E6331B37A</title>
<desc>Created with sketchtool.</desc>
<g id="Additional-templates">
	<g id="Space-listing-page" transform="translate(-997.000000, -425.000000)">
		<g id="Group-4" transform="translate(133.000000, 408.000000)">
			<path id="Combined-Shape" d="M864,36.6h24.7V39H864V36.6z M888.7,31.8v3.6h-10.8v-3.6H888.7z M884.2,34.2V33h-1.8v1.2H884.2z
				 M864,35.4V22.1h12.7v13.3H864z M866.4,24.2v1.2h1.8v-1.2H866.4z M888.7,26.9v3.6h-10.8v-3.6H888.7z M884.2,29.4v-1.2h-1.8v1.2
				H884.2z M888.7,22.1v3.6h-10.8v-3.6H888.7z M884.2,24.5v-1.2h-1.8v1.2H884.2z M872.1,20h-1.2v-0.5c0-0.7-0.6-1.4-1.4-1.4
				c-0.7,0-1.4,0.6-1.4,1.4v1.4H867v-1.4c0-1.4,1.1-2.6,2.6-2.6c1.4,0,2.6,1.1,2.6,2.6V20z"/>
		</g>
	</g>
</g>
</svg>
