<?xml version="1.0" encoding="utf-8"?>
<!-- Generator: Adobe Illustrator 23.0.3, SVG Export Plug-In . SVG Version: 6.00 Build 0)  -->
<svg version="1.1" id="Layer_1" xmlns="http://www.w3.org/2000/svg" xmlns:xlink="http://www.w3.org/1999/xlink" x="0px" y="0px"
	 viewBox="0 0 77 77" style="enable-background:new 0 0 77 77;" xml:space="preserve">
<style type="text/css">
	.st0{fill:#FFFFFF;}
</style>
 <path id="svg_2" d="m8.000001,37.237818c5.8,-5.8 14,-7.8 21.5,-6l29.4,-29.4c0.3,-0.4 0.8,-0.6 1.3,-0.6l13.4,-0.7c1.1,-0.1 2,0.8 2.1,1.9c0,0.1 0,0.2 0,0.3l-2.1,17.7c-0.1,1 -1,1.8 -2,1.8l-6.5,0l0,6.5c0,1.1 -0.9,2 -2,2l-6.5,0l0,6.5c0,0.5 -0.2,1 -0.6,1.4l-9.6,9.6c1.8,7.5 -0.1,15.7 -6,21.5c-9,9 -23.6,9 -32.5,0c-8.9,-9 -8.9,-23.6 0.1,-32.5l0,0zm2.8,2.8c-7.4,7.4 -7.4,19.4 0,26.9s19.4,7.4 26.9,0c5.1,-5.1 6.7,-12.4 4.8,-18.9c-0.2,-0.7 0,-1.5 0.5,-2l9.7,-9.7l0,-7.7c0,-1.1 0.9,-2 2,-2l6.5,0l0,-6.5c0,-1.1 0.9,-2 2,-2l6.7,0l1.6,-13.5l-10.3,0.5l-29.5,29.5c-0.5,0.5 -1.3,0.7 -2,0.5c-6.5,-1.8 -13.8,-0.2 -18.9,4.9l0,0zm2.8,12.7c3.1,-3.1 8.2,-3.1 11.3,0c3.1,3.1 3.1,8.2 0,11.3c-3.1,3.1 -8.2,3.1 -11.3,0c-3.1,-3.1 -3.1,-8.2 0,-11.3l0,0zm2.9,2.9c-1.6,1.6 -1.6,4.1 0,5.7c1.6,1.6 4.1,1.6 5.7,0c1.6,-1.6 1.6,-4.1 0,-5.7c-1.7,-1.6 -4.2,-1.6 -5.7,0l0,0z" class="st0"/>
</svg>