<?xml version="1.0" encoding="UTF-8"?>
<svg width="17px" height="24px" viewBox="0 0 17 24" version="1.1" xmlns="http://www.w3.org/2000/svg" xmlns:xlink="http://www.w3.org/1999/xlink">
    <!-- Generator: Sketch 52.6 (67491) - http://www.bohemiancoding.com/sketch -->
    <title>np_location_1570902_000000</title>
    <desc>Created with Sketch.</desc>
    <g id="Desktop" stroke="none" stroke-width="1" fill="none" fill-rule="evenodd">
        <g id="Standard-Page" transform="translate(-135.236165, -456.000000)" fill="#FFFFFF" fill-rule="nonzero">
            <g id="Slider-" transform="translate(133.000000, 242.000000)">
                <g id="Content">
                    <g id="Location" transform="translate(3.000000, 214.000000)">
                        <g id="np_location_1570902_000000">
                            <path d="M8,0.00222857143 C3.57914286,0.00222857143 0,3.78022857 0,9.14508571 C0,16.0345143 4.50228571,21.0222286 7.66057143,23.3148 C7.86258,23.4632371 8.13714286,23.4632371 8.33914286,23.3148 C11.4977143,21.0224 15.9997143,16.0348 15.9997143,9.14508571 C15.9997143,3.78022857 12.4205714,0.00222857143 7.99971429,0.00222857143 L8,0.00222857143 Z M8,1.14508571 C11.778,1.14508571 14.8571429,4.27565714 14.8571429,9.14508571 C14.8571429,15.2979429 10.914,19.8916571 8,22.1273714 C5.086,19.8918857 1.14285714,15.2982286 1.14285714,9.14508571 C1.14285714,4.27565714 4.222,1.14508571 8,1.14508571 Z M8,4.00222857 C5.48214286,4.00222857 3.42857143,6.0558 3.42857143,8.57365714 C3.42857143,11.0915143 5.48214286,13.1450857 8,13.1450857 C10.5178571,13.1450857 12.5714286,11.0915143 12.5714286,8.57365714 C12.5714286,6.0558 10.5178571,4.00222857 8,4.00222857 Z M8,5.14508571 C9.90065714,5.14508571 11.4285714,6.673 11.4285714,8.57365714 C11.4285714,10.4743143 9.90065714,12.0022286 8,12.0022286 C6.09934286,12.0022286 4.57142857,10.4743143 4.57142857,8.57365714 C4.57142857,6.673 6.09934286,5.14508571 8,5.14508571 Z" id="Shape"></path>
                        </g>
                    </g>
                </g>
            </g>
        </g>
    </g>
</svg>