<?xml version="1.0" encoding="utf-8"?>
<!-- Generator: Adobe Illustrator 22.0.1, SVG Export Plug-In . SVG Version: 6.00 Build 0)  -->
<svg version="1.1" id="Layer_1" xmlns="http://www.w3.org/2000/svg" xmlns:xlink="http://www.w3.org/1999/xlink" x="0px" y="0px"
	 viewBox="0 0 14 20" style="enable-background:new 0 0 14 20;" xml:space="preserve">
<style type="text/css">
	.st0{fill:#FFE51E;}
</style>
<path id="Shape" class="st0" d="M6.8,0C3.1,0,0,3,0,6.8C0,6.9,0,6.9,0,7c0,0.7,0.2,1.4,0.4,2C1.9,13.8,6.8,20,6.8,20
	s4.9-6.2,6.4-10.9c0.2-0.6,0.4-1.3,0.4-2c0-0.1,0-0.2,0-0.2C13.6,3,10.5,0,6.8,0L6.8,0z M6.8,10.1c-1.8,0-3.3-1.5-3.3-3.3
	S5,3.5,6.8,3.5s3.3,1.5,3.3,3.3S8.6,10.1,6.8,10.1z"/>
</svg>
