<svg width="22" height="22" viewBox="0 0 22 22" fill="none" xmlns="http://www.w3.org/2000/svg">
<path fill-rule="evenodd" clip-rule="evenodd" d="M17.914 4.27759C19.3992 5.78458 20.3891 7.66895 20.7426 9.7419L20.7426 9.74188C20.7896 10.0243 21.0483 10.236 21.3319 10.212H21.4259C21.7325 10.1651 21.9442 9.85873 21.8973 9.52935C21.5208 7.22199 20.4131 5.10203 18.7391 3.42931C17.0651 1.75657 14.9436 0.673644 12.6574 0.297321C12.3277 0.22647 12.0451 0.439022 11.9742 0.768402C11.9033 1.09778 12.116 1.40417 12.4456 1.45109C14.5202 1.80441 16.4058 2.7705 17.914 4.27759ZM19.9646 15.7483C20.8605 16.6425 20.8605 17.8681 19.9646 18.7863L19.9647 18.7866C19.776 18.9982 19.5872 19.1868 19.3754 19.3525C19.0928 19.611 18.8331 19.8705 18.5974 20.1529L18.5735 20.1768C17.9132 20.9065 17.0412 21.2837 16.0275 21.2837H15.7448C14.2126 21.1899 12.8452 20.6249 11.8314 20.1299C9.16754 18.8344 6.83435 17.0199 4.8777 14.6885C3.27567 12.7561 2.19099 10.9427 1.48383 9.01144C1.20116 8.21108 0.824568 7.00935 0.918488 5.71387C0.989392 4.91341 1.31996 4.22978 1.88531 3.66485L3.41748 2.13384C3.86496 1.70968 4.38336 1.47413 4.9257 1.47413C5.46804 1.47413 5.98643 1.70968 6.41091 2.13384C6.69358 2.39331 6.97626 2.67577 7.23592 2.95823C7.35378 3.09993 7.49465 3.2407 7.63645 3.38239L7.63646 3.38239L8.839 4.60518C9.31043 5.07626 9.54615 5.59426 9.54615 6.1362C9.54615 6.67813 9.28648 7.22006 8.839 7.66721L8.46147 8.04445C8.13184 8.37478 7.77826 8.72809 7.42469 9.05747C7.68435 9.67025 8.06188 10.2591 8.62723 10.9657C9.75891 12.3561 10.9605 13.4629 12.2809 14.2873C12.335 14.3146 12.3893 14.3452 12.445 14.3766C12.5341 14.4269 12.6269 14.4793 12.7283 14.5229C12.7873 14.5583 12.8462 14.5877 12.9051 14.6172L12.9051 14.6172C12.9641 14.6466 13.023 14.6761 13.0819 14.7115L14.4962 13.2982C14.9437 12.8511 15.4621 12.6155 16.0045 12.6155C16.5698 12.6155 17.0882 12.8511 17.5127 13.2982L19.9646 15.7483ZM18.4012 18.6969L18.4014 18.6967C18.4593 18.6399 18.5168 18.5834 18.5733 18.5269L18.573 18.5265C18.6177 18.482 18.6625 18.4388 18.7065 18.3962C18.8484 18.259 18.9834 18.1285 19.0895 17.9846C19.4201 17.6552 19.6788 17.1363 19.1135 16.5713L16.6625 14.1222L16.649 14.1107C16.4861 13.9714 16.2773 13.7928 16.0023 13.7928C15.7196 13.7928 15.4608 13.9805 15.319 14.1222L13.7869 15.6532C13.716 15.7241 13.4803 15.9596 13.1267 15.9596C12.9849 15.9596 12.844 15.9127 12.7022 15.8418C12.6908 15.8418 12.685 15.836 12.6792 15.83C12.6733 15.824 12.6673 15.8179 12.6552 15.8179C12.6011 15.7907 12.5468 15.7601 12.4912 15.7287L12.4911 15.7286C12.402 15.6783 12.3092 15.626 12.2078 15.5824C12.1471 15.5475 12.0831 15.5127 12.0171 15.4768L12.0171 15.4768L12.0171 15.4768C11.9039 15.4152 11.7846 15.3504 11.6654 15.276C10.2511 14.3807 8.9547 13.2031 7.72915 11.696C7.04501 10.8486 6.59752 10.1181 6.2909 9.36451C6.27724 9.35139 6.27137 9.34575 6.26885 9.33889C6.26696 9.33372 6.26696 9.32786 6.26696 9.31759C6.19605 9.08205 6.12515 8.70575 6.50268 8.3285L6.52661 8.30458C6.90319 7.95128 7.25676 7.59798 7.63427 7.22075L7.6343 7.22072L8.01183 6.84347C8.24755 6.60793 8.36541 6.37239 8.36541 6.13685C8.36541 5.90131 8.24755 5.66577 8.01183 5.43023L6.80929 4.22859L6.38481 3.80443C6.28877 3.70847 6.19816 3.61527 6.10929 3.52386C5.93655 3.3462 5.77038 3.17529 5.58374 3.00397C5.41893 2.83928 5.18321 2.67459 4.90054 2.67459C4.66482 2.67459 4.42911 2.79235 4.21733 3.00397L2.70911 4.51105C2.35553 4.8883 2.14283 5.31246 2.09587 5.83046C2.02591 6.63191 2.16677 7.50322 2.59125 8.61008C3.27554 10.4247 4.28927 12.1203 5.79749 13.9338C7.63633 16.1245 9.82874 17.8442 12.3507 19.0688C13.2936 19.5169 14.5191 20.011 15.8386 20.1287H16.0504C16.7345 20.1287 17.2769 19.9171 17.7244 19.4221C17.932 19.1579 18.1698 18.9244 18.4012 18.6969ZM11.7854 4.56C11.8323 4.23062 12.1389 4.01807 12.4686 4.08892C13.8829 4.32446 15.1553 4.98416 16.1691 6.02016C17.1829 7.05617 17.8431 8.32865 18.1018 9.71792C18.1488 10.0473 17.937 10.3537 17.6304 10.4006H17.5364C17.2538 10.4006 16.9941 10.189 16.9471 9.9056C16.7584 8.75183 16.193 7.66796 15.3441 6.84357C14.4951 5.99524 13.4344 5.45425 12.2797 5.2417C11.9262 5.1957 11.7144 4.88931 11.7853 4.55993L11.7854 4.56Z" fill="white"/>
</svg>
