<svg width="15" height="14" viewBox="0 0 15 14" fill="none" xmlns="http://www.w3.org/2000/svg">
<path d="M14.3105 7.00203C14.301 7.25225 14.1971 7.54212 14.0262 7.72396L8.42621 13.6744C8.04615 14.0149 7.31878 14.1557 6.89497 13.7619C6.47662 13.3736 6.4903 12.6202 6.90591 12.2305L10.8434 8.05194H1.36054C0.780874 8.05194 0.310547 7.58157 0.310547 7.00186C0.310547 6.42215 0.780874 5.95178 1.36054 5.95178H10.8434L6.90591 1.77317C6.54772 1.41359 6.48073 0.634226 6.89497 0.241812C7.30786 -0.150602 8.06253 -0.0248097 8.42621 0.329318L14.0262 6.27976C14.2176 6.48348 14.3105 6.72275 14.3105 7.00168V7.00203Z" fill="black"/>
</svg>
