<svg width="20" height="20" viewBox="0 0 20 20" fill="none" xmlns="http://www.w3.org/2000/svg">
<path fill-rule="evenodd" clip-rule="evenodd" d="M13.9979 12.7595C13.8535 12.6151 13.8364 12.3699 13.958 12.2103L13.958 12.2102C13.958 12.2102 14.0036 12.157 14.1252 11.9765C14.8759 10.8553 15.3149 9.50604 15.3149 8.05415C15.3149 4.15841 12.1565 1 8.2607 1C4.36496 1 1.20654 4.15841 1.20654 8.05415C1.20654 11.9499 4.36496 15.1083 8.2607 15.1083C9.70691 15.1083 11.0505 14.6731 12.1698 13.9263C12.356 13.8028 12.4149 13.7514 12.4149 13.7514C12.5765 13.6317 12.8235 13.6488 12.966 13.7913L17.9604 18.7876C18.2454 19.0708 18.7091 19.0708 18.9942 18.7876C19.2773 18.5026 19.2773 18.0389 18.9942 17.7538L13.9979 12.7595ZM13.8553 8.05418C13.8553 11.1442 11.3507 13.6489 8.26065 13.6489C5.17063 13.6489 2.66597 11.1442 2.66597 8.05418C2.66597 4.96417 5.17063 2.45951 8.26065 2.45951C11.3507 2.45951 13.8553 4.96417 13.8553 8.05418Z" fill="white"/>
<path d="M13.958 12.2103L13.561 11.9063L13.5603 11.9073L13.958 12.2103ZM13.9979 12.7595L13.6443 13.1131L13.6444 13.1131L13.9979 12.7595ZM13.958 12.2102L13.5784 11.8849L13.5694 11.8953L13.5611 11.9062L13.958 12.2102ZM14.1252 11.9765L14.5399 12.2559L14.5407 12.2547L14.1252 11.9765ZM12.1698 13.9263L11.8934 13.5096L11.8923 13.5104L12.1698 13.9263ZM12.4149 13.7514L12.1172 13.3497L12.1014 13.3615L12.0865 13.3744L12.4149 13.7514ZM12.966 13.7913L13.3197 13.4379L13.3196 13.4378L12.966 13.7913ZM17.9604 18.7876L17.6068 19.1411L17.608 19.1424L17.9604 18.7876ZM18.9942 18.7876L19.3466 19.1424L19.3489 19.14L18.9942 18.7876ZM18.9942 17.7538L19.3489 17.4015L19.3477 17.4002L18.9942 17.7538ZM13.5603 11.9073C13.2846 12.2691 13.3258 12.7945 13.6443 13.1131L14.3514 12.4059C14.3723 12.4268 14.3763 12.4461 14.3769 12.4548C14.3775 12.4633 14.3766 12.4859 14.3557 12.5133L13.5603 11.9073ZM13.5611 11.9062L13.561 11.9063L14.3549 12.5143L14.355 12.5143L13.5611 11.9062ZM13.7106 11.6971C13.6531 11.7824 13.6157 11.8345 13.5944 11.8632C13.5838 11.8775 13.5775 11.8856 13.5749 11.889C13.5736 11.8906 13.5732 11.891 13.5738 11.8903C13.5741 11.8899 13.5747 11.8893 13.5754 11.8884C13.5758 11.8879 13.5762 11.8874 13.5767 11.8868C13.577 11.8865 13.5772 11.8862 13.5775 11.8859C13.5776 11.8857 13.5778 11.8856 13.5779 11.8854C13.578 11.8853 13.5781 11.8852 13.5782 11.8851C13.5782 11.8851 13.5782 11.885 13.5783 11.885C13.5783 11.8849 13.5784 11.8849 13.958 12.2102C14.3376 12.5356 14.3377 12.5356 14.3378 12.5355C14.3378 12.5355 14.3378 12.5354 14.3379 12.5354C14.338 12.5353 14.338 12.5352 14.3381 12.5351C14.3383 12.5349 14.3384 12.5347 14.3386 12.5345C14.3389 12.5342 14.3392 12.5338 14.3396 12.5334C14.3402 12.5326 14.341 12.5317 14.3417 12.5309C14.3432 12.5291 14.3448 12.5271 14.3466 12.525C14.3501 12.5206 14.3543 12.5154 14.3592 12.5093C14.3689 12.497 14.3816 12.4805 14.3976 12.4589C14.4296 12.4159 14.4758 12.3511 14.5399 12.2559L13.7106 11.6971ZM14.8149 8.05415C14.8149 9.40378 14.4071 10.6567 13.7098 11.6983L14.5407 12.2547C15.3446 11.0539 15.8149 9.60831 15.8149 8.05415H14.8149ZM8.2607 1.5C11.8803 1.5 14.8149 4.43455 14.8149 8.05415H15.8149C15.8149 3.88227 12.4326 0.5 8.2607 0.5V1.5ZM1.70654 8.05415C1.70654 4.43455 4.6411 1.5 8.2607 1.5V0.5C4.08882 0.5 0.706543 3.88227 0.706543 8.05415H1.70654ZM8.2607 14.6083C4.6411 14.6083 1.70654 11.6738 1.70654 8.05415H0.706543C0.706543 12.226 4.08882 15.6083 8.2607 15.6083V14.6083ZM11.8923 13.5104C10.8525 14.2041 9.60503 14.6083 8.2607 14.6083V15.6083C9.80878 15.6083 11.2484 15.1421 12.4473 14.3422L11.8923 13.5104ZM12.4149 13.7514C12.0865 13.3744 12.0866 13.3743 12.0867 13.3743C12.0867 13.3743 12.0868 13.3742 12.0868 13.3742C12.0869 13.3741 12.087 13.374 12.0871 13.3739C12.0872 13.3738 12.0874 13.3736 12.0876 13.3735C12.0879 13.3732 12.0882 13.3729 12.0885 13.3727C12.0891 13.3722 12.0897 13.3717 12.0901 13.3713C12.0911 13.3705 12.0917 13.37 12.0921 13.3697C12.0928 13.3691 12.0924 13.3694 12.0906 13.3708C12.0871 13.3736 12.0786 13.3803 12.0638 13.3913C12.0341 13.4134 11.9803 13.4519 11.8934 13.5096L12.4461 14.343C12.5455 14.2771 12.6142 14.2282 12.6606 14.1937C12.6838 14.1765 12.7016 14.1626 12.715 14.152C12.7217 14.1466 12.7273 14.142 12.732 14.1381C12.7343 14.1362 12.7364 14.1344 12.7383 14.1328C12.7393 14.132 12.7401 14.1312 12.741 14.1305C12.7414 14.1302 12.7418 14.1298 12.7422 14.1295C12.7424 14.1293 12.7426 14.1291 12.7428 14.129C12.7429 14.1289 12.743 14.1288 12.7431 14.1287C12.7431 14.1287 12.7432 14.1286 12.7432 14.1286C12.7433 14.1285 12.7433 14.1285 12.4149 13.7514ZM13.3196 13.4378C13.0003 13.1185 12.476 13.0838 12.1172 13.3497L12.7127 14.1531C12.6868 14.1723 12.6674 14.1722 12.662 14.1718C12.6565 14.1714 12.6362 14.1686 12.6125 14.1449L13.3196 13.4378ZM18.314 18.4341L13.3197 13.4379L12.6124 14.1448L17.6068 19.1411L18.314 18.4341ZM18.6418 18.4329C18.5517 18.5224 18.4028 18.5224 18.3128 18.4329L17.608 19.1424C18.088 19.6192 18.8665 19.6192 19.3465 19.1424L18.6418 18.4329ZM18.6394 18.1062C18.7289 18.1963 18.7289 18.3452 18.6395 18.4353L19.3489 19.14C19.8258 18.66 19.8257 17.8815 19.3489 17.4015L18.6394 18.1062ZM13.6444 13.1131L18.6407 18.1075L19.3477 17.4002L14.3514 12.4059L13.6444 13.1131ZM8.26065 14.1489C11.6268 14.1489 14.3553 11.4203 14.3553 8.05418H13.3553C13.3553 10.868 11.0745 13.1489 8.26065 13.1489V14.1489ZM2.16597 8.05418C2.16597 11.4203 4.89449 14.1489 8.26065 14.1489V13.1489C5.44677 13.1489 3.16597 10.868 3.16597 8.05418H2.16597ZM8.26065 1.95951C4.89449 1.95951 2.16597 4.68803 2.16597 8.05418H3.16597C3.16597 5.24031 5.44677 2.95951 8.26065 2.95951V1.95951ZM14.3553 8.05418C14.3553 4.68803 11.6268 1.95951 8.26065 1.95951V2.95951C11.0745 2.95951 13.3553 5.24031 13.3553 8.05418H14.3553Z" fill="white"/>
</svg>
