<?xml version="1.0" encoding="UTF-8"?>
<svg width="20px" height="19px" viewBox="0 0 20 19" version="1.1" xmlns="http://www.w3.org/2000/svg" xmlns:xlink="http://www.w3.org/1999/xlink">
    <!-- Generator: Sketch 52.6 (67491) - http://www.bohemiancoding.com/sketch -->
    <title>np_ticket_773334_000000</title>
    <desc>Created with Sketch.</desc>
    <g id="Desktop" stroke="none" stroke-width="1" fill="none" fill-rule="evenodd">
        <g id="Standard-Page" transform="translate(-134.236165, -499.000000)" fill="#FFFFFF" fill-rule="nonzero">
            <g id="Slider-" transform="translate(133.000000, 242.000000)">
                <g id="Content">
                    <g id="tickets" transform="translate(1.000000, 247.000000)">
                        <g id="np_ticket_773334_000000" transform="translate(0.000000, 9.000000)">
                            <path d="M7.87330324,10.7469066 C7.24389358,10.7469066 6.65238263,10.9909809 6.20753148,11.4355404 C5.28895696,12.3518185 5.28895696,13.8424139 6.20753148,14.7596386 C6.65240372,15.2033987 7.24391467,15.447452 7.87330324,15.447452 C8.50269181,15.447452 9.09422385,15.2033777 9.53907501,14.7596386 C10.4576495,13.8433606 10.4576495,12.3519237 9.53907501,11.4355404 C9.09420276,10.9909599 8.50269181,10.7469066 7.87330324,10.7469066 Z M9.09173523,14.3125126 C8.76631668,14.6371176 8.33298066,14.8154295 7.87330324,14.8154295 C7.41278222,14.8154295 6.98026871,14.6362845 6.65487125,14.3125126 C5.98345033,13.6419498 5.98345033,12.5514621 6.65487125,11.8808151 C6.9802898,11.5562102 7.41362582,11.3770778 7.87330324,11.3770778 C8.33382426,11.3770778 8.76633777,11.5562228 9.09173523,11.8808151 C9.76397866,12.551378 9.76315615,13.6418656 9.09173523,14.3125126 Z M9.08679216,8.53546928 C9.16752675,8.53546928 9.24908596,8.50506412 9.3108733,8.44343124 L12.789878,4.97312401 C12.9134527,4.84985826 12.9134527,4.65015992 12.789878,4.52690259 C12.6663034,4.40363684 12.4661045,4.40363684 12.3425383,4.52690259 L8.86353352,7.99720981 C8.73995884,8.12047556 8.73995884,8.32017391 8.86353352,8.44343124 C8.92532087,8.50506412 9.00605546,8.53546928 9.08679216,8.53546928 Z M14.0148901,5.74803167 C13.8913154,5.62476592 13.6911166,5.62476592 13.5675503,5.74803167 L10.0885456,9.21918039 C9.9649709,9.34244614 9.9649709,9.54214448 10.0885456,9.66540181 C10.1503329,9.72703469 10.2310675,9.75743985 10.3126267,9.75743985 C10.3933613,9.75743985 10.4749205,9.72703469 10.5367079,9.66540181 L14.014869,6.1942531 C14.1384437,6.07098735 14.1384437,5.87213049 14.014869,5.74803167 L14.0148901,5.74803167 Z M15.2399233,6.97082269 C15.1163486,6.84755694 14.9161497,6.84755694 14.7925835,6.97082269 L11.3127351,10.4411299 C11.1891605,10.5643957 11.1891605,10.764094 11.3127351,10.8873513 C11.3745225,10.9489842 11.4552571,10.9793894 11.5368163,10.9793894 C11.6175509,10.9793894 11.6991101,10.9489842 11.7608974,10.8873513 L15.2407458,7.41704412 C15.3634958,7.29377837 15.3634958,7.09408003 15.2399218,6.97082269 L15.2399233,6.97082269 Z M16.0176166,8.19197281 L12.5386119,11.66228 C12.4150372,11.7855458 12.4150372,11.9852441 12.5386119,12.1085015 C12.6003992,12.1701343 12.6811338,12.2005395 12.762693,12.2005395 C12.8434276,12.2005395 12.9249868,12.1701343 12.9867742,12.1085015 L16.4657789,8.63819424 C16.5893536,8.51492849 16.5893536,8.31523015 16.4657789,8.19197281 C16.3413817,8.06870706 16.1411829,8.06870706 16.0176166,8.19197281 Z M19.6836896,6.28300932 L18.6876726,6.28300932 L18.6876726,5.2894824 C18.6876726,5.20566153 18.6547195,5.12595133 18.5954039,5.06596146 C18.5360883,5.00679416 18.4553537,4.97392343 18.3713228,4.97392343 L17.3753058,4.97392343 L17.3753058,3.98039652 C17.3753058,3.80618272 17.2336064,3.66483754 17.058956,3.66483754 L16.062939,3.66483754 L16.062939,2.67131063 C16.062939,2.49709683 15.9212396,2.35575166 15.7465892,2.35575166 L14.7505722,2.35575166 L14.7505722,1.36222475 C14.7505722,1.18801095 14.6088728,1.04666577 14.4342224,1.04666577 L13.1218556,1.04666577 C13.0378246,1.04666577 12.9579146,1.0795365 12.8977744,1.1387038 L1.09560516,12.9122091 C1.03711418,12.9705539 1.00333646,13.0502662 1.00333646,13.1332687 L0.995098074,14.4513796 C0.994274299,14.5360209 1.02805118,14.6165558 1.08736678,14.6765414 C1.14668238,14.7357087 1.22741697,14.7685795 1.31144792,14.7685795 L1.31391946,14.7685795 L2.31404896,14.7620053 L2.30745834,15.7596345 C2.30663435,15.8442758 2.34041145,15.9248107 2.39972705,15.9847964 C2.45904264,16.0439637 2.53977723,16.0768344 2.62380819,16.0768344 L2.62627972,16.0768344 L3.62640923,16.071082 L3.61981861,17.0687111 C3.61899483,17.1533525 3.65277171,17.2338873 3.71208731,17.293873 C3.77140291,17.3530403 3.85049037,17.3949507 3.93781347,17.385911 L4.93794298,17.3793369 L4.93135235,18.3777865 C4.93052858,18.4624278 4.96430546,18.5429627 5.02362106,18.6029484 C5.08293666,18.6621157 5.16367125,18.6949864 5.2477022,18.6949864 L5.25017374,18.6949864 L6.25030324,18.6884122 L6.24371262,19.6860414 C6.24288884,19.7706828 6.27666573,19.8512176 6.33598133,19.9112033 C6.39529692,19.9703706 6.47603151,20.0032413 6.56006247,20.0032413 L6.562534,20.0032413 L7.88394841,19.9950237 C7.96715475,19.9942018 8.04706683,19.9613304 8.10556203,19.9029857 L19.9077313,8.13032185 C19.9670469,8.07115454 20,7.99062178 20,7.90680091 L20,6.59771502 C20,6.42432167 19.8583006,6.2829765 19.6836502,6.2829765 L19.6836896,6.28300932 Z M19.3673397,7.77699173 L7.74970789,19.3655795 L6.87892329,19.3713319 L6.88551391,18.3737028 C6.88633769,18.2890614 6.8525608,18.2085266 6.79324521,18.1485409 C6.73392961,18.0893736 6.65319502,18.0565029 6.56916406,18.0565029 L6.56669253,18.0565029 L5.56656303,18.063077 L5.57315365,17.0646274 C5.57397742,16.9799861 5.54020054,16.8994512 5.48088494,16.8394655 C5.42156935,16.7802982 5.3433065,16.7490705 5.25515878,16.7474275 L4.25502928,16.7540016 L4.2616199,15.7563725 C4.26244367,15.6725516 4.22866679,15.5911963 4.16935119,15.5312106 C4.1100356,15.4720433 4.02930101,15.4391726 3.94527005,15.4391726 L3.94279851,15.4391726 L2.94266901,15.4449248 L2.94925963,14.4472956 C2.95008341,14.3626543 2.91630652,14.2821194 2.85699093,14.2221338 C2.79767533,14.1629665 2.72353136,14.1292732 2.63126477,14.1300957 L1.63113526,14.1366699 L1.6369019,13.2680623 L13.2528466,1.6777915 L14.1178736,1.6777915 L14.1178736,2.67131842 C14.1178736,2.84553432 14.259573,2.98687739 14.4342234,2.98687739 L15.4302404,2.98687739 L15.4302404,3.9804043 C15.4302404,4.1546181 15.5719398,4.29596328 15.7465902,4.29596328 L16.7426072,4.29596328 L16.7426072,5.28949019 C16.7426072,5.46370399 16.8843066,5.60504916 17.058957,5.60504916 L18.054974,5.60504916 L18.054974,6.59857607 C18.054974,6.68239695 18.0879271,6.76210715 18.1472427,6.82209702 C18.2065583,6.88126432 18.2872929,6.91413505 18.3713238,6.91413505 L19.3673408,6.91413505 L19.3673397,7.77699173 Z" id="Shape"></path>
                        </g>
                    </g>
                </g>
            </g>
        </g>
    </g>
</svg>