<?xml version="1.0" encoding="utf-8"?>
<!-- Generator: Adobe Illustrator 22.0.1, SVG Export Plug-In . SVG Version: 6.00 Build 0)  -->
<svg version="1.1" id="Capa_1" xmlns="http://www.w3.org/2000/svg" xmlns:xlink="http://www.w3.org/1999/xlink" x="0px" y="0px"
	 viewBox="0 0 15 15" style="enable-background:new 0 0 15 15;" xml:space="preserve">
<style type="text/css">
	.st0{fill:#FFFFFF;}
</style>
<path class="st0" d="M7.5,0.1C7.5,0.1,7.5,0.1,7.5,0.1C7.5,0.1,7.5,0.1,7.5,0.1C7.5,0.1,7.5,0.1,7.5,0.1c-4.1,0-7.4,3.3-7.4,7.4
	c0,4.1,3.3,7.4,7.4,7.4c0,0,0,0,0,0c0,0,0,0,0,0c0,0,0,0,0,0c4.1,0,7.4-3.3,7.4-7.4C14.9,3.4,11.6,0.1,7.5,0.1z M0.6,7.8h2.6
	c0,0.9,0.1,1.7,0.3,2.5H1.1C0.8,9.5,0.6,8.6,0.6,7.8z M7.8,4.3V0.6c1.3,0.2,2.5,1.6,3.1,3.6H7.8z M11,4.8c0.2,0.8,0.3,1.6,0.3,2.5
	H7.8V4.8H11z M7.3,0.6v3.6H4.2C4.8,2.2,5.9,0.8,7.3,0.6z M7.3,4.8v2.5H3.7c0-0.9,0.1-1.7,0.3-2.5H7.3z M3.2,7.3H0.6
	c0-0.9,0.2-1.7,0.6-2.5h2.3C3.3,5.6,3.2,6.4,3.2,7.3z M3.7,7.8h3.5v2.5H4C3.8,9.5,3.7,8.6,3.7,7.8z M7.3,10.7v3.7
	c-1.4-0.2-2.5-1.6-3.1-3.7H7.3z M7.8,14.4v-3.7h3.1C10.2,12.8,9.1,14.2,7.8,14.4z M7.8,10.2V7.8h3.5c0,0.9-0.1,1.7-0.3,2.5H7.8z
	 M11.8,7.8h2.6c0,0.9-0.2,1.7-0.5,2.5h-2.4C11.7,9.5,11.8,8.6,11.8,7.8z M11.8,7.3c0-0.9-0.1-1.7-0.3-2.5h2.4
	c0.3,0.8,0.5,1.6,0.6,2.5H11.8z M13.6,4.3h-2.3c-0.4-1.5-1.1-2.7-2-3.4C11.2,1.4,12.7,2.6,13.6,4.3z M5.6,0.9
	c-0.8,0.7-1.5,1.9-2,3.4H1.4C2.3,2.6,3.8,1.4,5.6,0.9z M1.4,10.7h2.2c0.4,1.5,1.1,2.7,2,3.4C3.8,13.6,2.3,12.4,1.4,10.7z M9.4,14.2
	c0.9-0.7,1.6-1.9,2-3.4h2.3C12.7,12.4,11.2,13.7,9.4,14.2z"/>
</svg>
