<?xml version="1.0" encoding="utf-8"?>
<!-- Generator: Adobe Illustrator 22.0.1, SVG Export Plug-In . SVG Version: 6.00 Build 0)  -->
<svg version="1.1" id="Layer_1" xmlns="http://www.w3.org/2000/svg" xmlns:xlink="http://www.w3.org/1999/xlink" x="0px" y="0px"
	 viewBox="0 0 20 23" style="enable-background:new 0 0 20 23;" xml:space="preserve">
<title>48793BCE-AF73-4F42-85C8-786E11707C3B</title>
<desc>Created with sketchtool.</desc>
<g id="Additional-templates">
	<g id="Events-directory-page-persistent-filter" transform="translate(-1344.000000, -18.000000)">
		<g id="filter">
			<g id="np_handicap_545876_000000" transform="translate(1344.000000, 18.000000)">
				<path id="Shape" d="M7.2,5c1.3,0,2.4-1.1,2.4-2.4S8.5,0.2,7.2,0.2S4.8,1.3,4.8,2.6C4.8,3.9,5.8,5,7.2,5z M19.1,16.7
					c-0.6-0.6-1.5-0.6-2.1,0l-0.4,0.4l-2.9-2.9c-0.4-0.4-1-0.7-1.7-0.7h-3c-0.3,0-0.5-0.2-0.5-0.5v-2.7l1.1,1.1
					c0.1,0.1,0.2,0.2,0.4,0.1l2.8-0.4c0.4,0,0.7-0.2,1-0.6s0.3-0.7,0.3-1.1c-0.1-0.8-0.9-1.4-1.7-1.2L11,8.6L8.8,6.5
					C8.5,6.1,8,5.9,7.5,5.9c-1,0-1.8,0.8-1.8,1.8V14c0,1.3,1.1,2.4,2.4,2.4h3.8l3.9,3.9c0.3,0.3,0.6,0.4,1,0.4s0.7-0.1,1-0.4
					l1.4-1.4C19.7,18.3,19.7,17.3,19.1,16.7L19.1,16.7z M11.8,17.8c-0.3-0.1-0.5,0.1-0.6,0.3c-0.6,2.3-2.7,3.9-5.1,3.9
					c-2.9,0-5.2-2.3-5.2-5.2c0-2.2,1.4-4.2,3.5-4.9c0.2-0.1,0.4-0.4,0.3-0.6c-0.1-0.2-0.4-0.4-0.6-0.3C1.7,11.9,0,14.2,0,16.8
					C0,20.2,2.8,23,6.2,23c2.8,0,5.3-1.9,6-4.7C12.2,18.1,12.1,17.8,11.8,17.8L11.8,17.8z"/>
			</g>
		</g>
	</g>
</g>
</svg>
